<?xml version="1.0" standalone="no"?><!DOCTYPE svg PUBLIC "-//W3C//DTD SVG 1.1//EN" "http://www.w3.org/Graphics/SVG/1.1/DTD/svg11.dtd"><svg t="1732765556989" class="icon" viewBox="0 0 1024 1024" version="1.1" xmlns="http://www.w3.org/2000/svg" p-id="1552" xmlns:xlink="http://www.w3.org/1999/xlink" width="200" height="200"><path d="M864 64a96 96 0 0 1 96 96v704a96 96 0 0 1-96 96H160a96 96 0 0 1-96-96V160a96 96 0 0 1 96-96h704z m0 64H160a32 32 0 0 0-32 32v704a32 32 0 0 0 32 32h704a32 32 0 0 0 32-32V160a32 32 0 0 0-32-32z m-322.4 256c0-31.456 40.64-44.032 58.4-18.08l133.6 195.168V384a32 32 0 0 1 64 0v280.48c0 31.456-40.64 44.032-58.4 18.08l-133.6-195.168v177.088a32 32 0 1 1-64 0z" fill="#ffffff" p-id="1553"></path><path d="M448 352a32 32 0 0 1 0 64H288v80h160a32 32 0 0 1 31.776 28.256L480 528a32 32 0 0 1-32 32H288v72.48h160a32 32 0 1 1 0 64H256a32 32 0 0 1-32-32V384a32 32 0 0 1 32-32z" fill="#ffffff" p-id="1554"></path></svg>