<?xml version="1.0" standalone="no"?><!DOCTYPE svg PUBLIC "-//W3C//DTD SVG 1.1//EN" "http://www.w3.org/Graphics/SVG/1.1/DTD/svg11.dtd"><svg t="1607014980188" class="icon" viewBox="0 0 1024 1024" version="1.1" xmlns="http://www.w3.org/2000/svg" p-id="3560" xmlns:xlink="http://www.w3.org/1999/xlink" width="1000" height="1000"><defs><style type="text/css"></style></defs><path d="M512 85.333333a426.666667 426.666667 0 1 0 426.666667 426.666667A426.666667 426.666667 0 0 0 512 85.333333z m42.666667 661.333334a21.333333 21.333333 0 0 1-21.333334 21.333333h-42.666666a21.333333 21.333333 0 0 1-21.333334-21.333333v-42.666667a21.333333 21.333333 0 0 1 21.333334-21.333333h42.666666a21.333333 21.333333 0 0 1 21.333334 21.333333z m122.88-338.773334a123.306667 123.306667 0 0 1-85.333334 116.48l-37.546666 13.226667a5.546667 5.546667 0 0 0-3.413334 5.12v33.28a21.333333 21.333333 0 0 1-21.333333 21.333333h-32.426667a21.333333 21.333333 0 0 1-21.333333-21.333333v-33.28a80.213333 80.213333 0 0 1 55.04-75.946667l40.533333-13.226666a48.213333 48.213333 0 0 0 32.426667-45.653334V384A47.786667 47.786667 0 0 0 554.666667 336.213333h-85.333334A47.786667 47.786667 0 0 0 421.546667 384v21.333333a21.333333 21.333333 0 0 1-21.333334 21.333334h-32.426666a21.333333 21.333333 0 0 1-21.333334-21.333334V384A122.88 122.88 0 0 1 469.333333 261.12h85.333334A122.88 122.88 0 0 1 677.546667 384z" p-id="3561"></path></svg>