<?xml version="1.0" standalone="no"?><!DOCTYPE svg PUBLIC "-//W3C//DTD SVG 1.1//EN" "http://www.w3.org/Graphics/SVG/1.1/DTD/svg11.dtd"><svg t="1607013769326" class="icon" viewBox="0 0 1024 1024" version="1.1" xmlns="http://www.w3.org/2000/svg" p-id="2652" xmlns:xlink="http://www.w3.org/1999/xlink" width="1000" height="1000"><defs><style type="text/css"></style></defs><path d="M529.933838 538.513297c70.84973-0.110703 140.537081 18.127568 202.281513 52.915892l2.684541 1.549838a44.834595 44.834595 0 0 0 45.139027-77.519568 498.715676 498.715676 0 0 0-80.729946-37.30681 268.564757 268.564757 0 0 0 99.687784-209.08973C798.996757 120.444541 678.552216 0 529.933838 0c-148.618378 0-269.062919 120.472216-269.062919 269.062919a268.509405 268.509405 0 0 0 99.687784 209.062054C166.496865 547.618595 27.675676 733.128649 27.675676 951.10227v8.496433c0 1.190054 0 2.352432 0.138378 3.487135a44.86227 44.86227 0 0 0 89.696865-3.182703v-0.304432c0-0.83027 0-1.577514-0.055351-2.380108v-6.144c-0.083027-227.826162 184.624432-412.561297 412.47827-412.561298z m0-448.816432a179.366054 179.366054 0 1 1 0 358.759784 179.366054 179.366054 0 0 1 0-358.759784z" p-id="2653"></path><path d="M924.561297 719.207784a44.834595 44.834595 0 0 0-44.834594-44.834595H574.851459l12.260325-12.232648a44.86227 44.86227 0 0 0-63.432649-63.460325l-88.783567 88.783568a34.566919 34.566919 0 0 0-1.549838 1.605189l-0.664216 0.802595c-0.249081 0.276757-0.525838 0.553514-0.747244 0.857946l-0.83027 1.051675-0.525838 0.664216-0.83027 1.107027-0.415135 0.636541a45.388108 45.388108 0 0 0-0.802595 1.21773l-0.387459 0.63654-0.691892 1.21773-0.38746 0.691892-0.581189 1.107027a10.765838 10.765838 0 0 0-0.415135 0.83027l-0.498162 1.107027-0.415135 0.968649-0.38746 0.968648-0.415135 1.107028-0.276757 0.857945-0.415135 1.273082-0.221405 0.747243-0.359784 1.383784-0.166054 0.691891-0.304432 1.439136-0.138379 0.719567-0.249081 1.41146c0 0.276757-0.055351 0.553514-0.110703 0.857946l-0.138378 1.300756-0.083027 1.107027c0 0.387459-0.055351 0.719568-0.083027 1.051676l-0.055351 2.24173a30.221838 30.221838 0 0 0 0.138378 3.293405c0.083027 0.359784 0 0.747243 0.083027 1.107027 0.083027 0.359784 0.083027 0.885622 0.138378 1.328433l0.110703 0.83027 0.249081 1.439135 0.138379 0.719568 0.304432 1.411459c0 0.249081 0.110703 0.470486 0.166054 0.719568l0.359784 1.383783 0.221405 0.747244 0.415135 1.245405 0.276757 0.857946 0.415135 1.107027 0.38746 0.968649 0.415135 0.968648 0.498162 1.107027c0.166054 0.415135 0.276757 0.553514 0.415135 0.830271 0.110703 0.276757 0.387459 0.774919 0.581189 1.107027l0.38746 0.719567 0.691892 1.21773 0.387459 0.608865 0.802595 1.21773 0.415135 0.608864 0.83027 1.134703 0.553514 0.691892 0.802594 1.024 0.747244 0.885622c0.276757 0.276757 0.442811 0.525838 0.664216 0.774919 0.996324 1.107027 2.048 2.131027 3.155027 3.127351l0.774919 0.691892 0.885621 0.747243 1.024 0.83027c0.332108 0.276757 0.442811 0.332108 0.691892 0.498162l1.107027 0.830271 0.636541 0.442811 1.217729 0.774918 0.636541 0.38746 1.190054 0.691892 0.719568 0.415135 1.107027 0.581189 0.83027 0.415135 1.107027 0.470487 0.968649 0.415135 0.968648 0.387459 1.107027 0.442811 0.857946 0.276757 1.245406 0.387459 0.774919 0.221406 1.383783 0.387459 0.691892 0.138379 1.41146 0.332108 0.747243 0.138378 1.411459 0.221406 0.830271 0.110702 1.328432 0.166054 1.107027 0.083027c0.387459 0 0.719568 0.055351 1.079351 0.083027h415.384217a44.834595 44.834595 0 0 0 44.834594-44.66854z m71.126487 149.448648c0-0.332108 0-0.664216-0.055352-1.024-0.083027-0.332108 0-0.747243-0.083027-1.107027-0.083027-0.359784-0.110703-0.885622-0.166054-1.328432l-0.110702-0.83027-0.221406-1.439135-0.138378-0.719568a29.142486 29.142486 0 0 0-0.304433-1.411459l-0.166054-0.719568-0.359783-1.383784L993.833514 857.945946l-0.38746-1.273081-0.276757-0.83027a67.279568 67.279568 0 0 0-0.442811-1.134703l-0.359783-0.968649-0.415135-0.968648-0.498163-1.107027c-0.166054-0.415135-0.276757-0.553514-0.415135-0.830271a19.151568 19.151568 0 0 0-0.581189-1.107027c-0.221405-0.332108-0.276757-0.470486-0.387459-0.691892l-0.719568-1.217729-0.387459-0.636541a45.388108 45.388108 0 0 0-0.774919-1.21773l-0.415135-0.63654a18.182919 18.182919 0 0 0-0.830271-1.107027l-0.553513-0.664216-0.830271-1.051676-0.719567-0.857946-0.691892-0.83027a39.354811 39.354811 0 0 0-3.127351-3.099676l-0.774919-0.691892-0.885622-0.747243a55.987892 55.987892 0 0 0-1.024-0.83027l-0.691892-0.498163-1.107027-0.83027-0.63654-0.442811-1.190054-0.774919-0.664217-0.387459a26.181189 26.181189 0 0 0-1.190054-0.719568l-0.691892-0.387459-1.107027-0.581189-0.83027-0.415135-1.107027-0.470487-0.968649-0.442811-0.968648-0.359783-1.107027-0.415136-0.885622-0.276756-1.245405-0.415135-0.747243-0.221406a27.232865 27.232865 0 0 0-1.383784-0.387459l-0.691892-0.166054-1.439135-0.304433-0.747244-0.110703-1.383783-0.276756-0.857946-0.083027-1.300757-0.166054c-0.387459 0-0.774919 0-1.107027-0.083027l-1.051676-0.083027-2.241729-0.055352h-412.090811a44.834595 44.834595 0 0 0 0 89.696865h303.74054l-12.232648 12.177297a44.834595 44.834595 0 0 0 63.404973 63.432649l88.783567-88.783568 1.549838-1.632864 0.664216-0.774919a15.110919 15.110919 0 0 0 0.747243-0.885622l0.830271-1.024 0.525838-0.664216 0.83027-1.107027 0.415135-0.636541 0.774919-1.217729 0.415135-0.608865 0.691892-1.245406 0.387459-0.691892 0.58119-1.107027a9.02227 9.02227 0 0 0 0.415135-0.83027l0.498162-1.107027c0.138378-0.415135 0.276757-0.636541 0.415135-0.968649l0.387459-0.968648 0.415136-1.107027 0.276756-0.885622 0.415136-1.245405 0.221405-0.774919 0.359784-1.356108c0-0.221405 0.110703-0.470486 0.166054-0.719568l0.304432-1.411459 0.138379-0.719568 0.249081-1.411459a30.941405 30.941405 0 0 0 0.276756-2.158703l0.055352-1.134703c0-0.359784 0-0.691892 0.083027-1.051675v-2.214054a15.193946 15.193946 0 0 0 0-2.269406z" p-id="2654"></path></svg>